<svg width="106" height="24" viewBox="0 0 106 24" fill="none" xmlns="http://www.w3.org/2000/svg">
<path d="M16.1052 1.05034C15.5569 1.18742 14.7737 1.50074 14.3624 1.73572C13.9316 1.97071 13.2267 2.38194 12.7567 2.65609C11.6601 3.28272 9.79978 3.45896 9.32981 2.98898C8.899 2.55817 8.91858 2.36235 9.40814 2.0882C9.68229 1.95113 10.2502 1.91196 10.9747 1.99029C11.9147 2.10778 12.1301 2.06862 12.1301 1.83363C12.1301 1.48115 11.1314 1.12867 10.4264 1.24617C8.85983 1.48115 8.62485 1.55948 8.42903 1.79447C7.95905 2.36235 8.0178 2.93024 8.60527 3.47854C9.89769 4.69263 12.1496 4.67305 14.7541 3.40021C16.9277 2.34277 17.9656 2.04904 19.3951 2.06862C20.6679 2.06862 21.3337 2.34277 21.3337 2.87149C21.3337 3.69394 18.8272 4.00726 18.0243 3.26313C17.6131 2.89107 17.5739 2.87149 17.1235 3.16522C16.5361 3.53728 16.5165 3.71352 16.9864 4.10517C17.4564 4.53598 18.0243 4.67305 19.258 4.69263C21.3533 4.7318 22.9003 3.98767 22.9003 2.91065C22.9003 1.18742 19.3755 0.20831 16.1052 1.05034Z" fill="whitesmoke"/>
<path d="M3.22016 2.83233C1.79066 3.57645 1.57526 4.30099 2.53478 5.10386C3.31807 5.76966 4.78674 6.29838 7.23451 6.78793C10.1327 7.35582 11.6797 7.47331 16.1444 7.45373C21.7058 7.43414 25.7201 6.80751 28.1679 5.59342C29.6757 4.82971 29.8324 3.75269 28.5399 2.98898C27.9721 2.65609 27.9525 2.65609 28.07 3.02815C28.2462 3.59603 28.0308 4.00726 27.3063 4.45765C26.6013 4.88846 24.2319 5.55425 22.7632 5.73049C22.2345 5.78924 21.6078 5.88715 21.3337 5.9459C20.2958 6.20046 12.0322 6.1613 10.0739 5.90673C6.8037 5.47592 4.55175 4.75138 3.90554 3.90935C3.53348 3.45896 3.53348 3.38063 3.80763 2.94982C4.16011 2.4211 4.02303 2.40152 3.22016 2.83233Z" fill="whitesmoke"/>
<path d="M2.22147 7.14041C2.28022 7.5908 2.5152 8.62866 2.75019 9.43153L3.181 10.9002L2.1823 11.9772C0.0282619 14.3467 0.0282619 17.3819 2.1823 19.2422C3.45515 20.3192 5.58961 20.5542 6.96036 19.7709C7.29326 19.5751 7.27368 19.5555 6.78412 19.5359C5.72668 19.5359 4.08178 18.4002 3.29849 17.1861C2.88726 16.5594 2.57395 15.1104 2.67186 14.3662C2.76977 13.72 3.45515 12.2905 3.67055 12.2905C3.74888 12.2905 4.00345 12.7213 4.23844 13.2305C4.493 13.7592 5.35462 15.1495 6.19666 16.3245C7.54783 18.2239 8.58568 20.1822 8.60527 20.8479C8.60527 21.3375 10.1327 22.297 11.6013 22.767C12.8938 23.1782 13.5008 23.2566 15.694 23.2566C20.4329 23.2566 22.6457 22.2383 23.3507 19.7318C23.5269 19.1443 24.0556 18.126 24.5256 17.4798C26.9342 14.1508 27.4042 13.348 28.2462 11.0177C28.5204 10.254 28.8728 9.0203 29.0687 8.27618C29.2449 7.51247 29.4211 6.78793 29.4603 6.67044C29.5191 6.53336 29.2253 6.63127 28.8141 6.90542C27.7567 7.61038 26.0726 8.15868 23.9577 8.49158C23.5661 8.55033 23.0569 8.64824 22.8219 8.6874C20.9421 9.05947 13.1875 9.21612 10.4656 8.90281C6.56872 8.472 3.63139 7.66913 2.55437 6.72918L2.10398 6.31796L2.22147 7.14041Z" fill="whitesmoke"/>
<path d="M38.0402 6.5363C35.8325 7.57688 34.3982 10.6283 34.3982 14.2844C34.3982 15.6344 34.4403 16.014 34.6935 16.5484C35.1012 17.4483 35.7762 17.9264 36.9152 18.1233C38.4199 18.3764 39.9385 17.9405 41.176 16.8859C41.7385 16.3937 41.7525 16.3937 41.8369 16.7031C41.9775 17.139 42.315 17.5046 42.8212 17.7718C43.3978 18.0671 44.7899 18.053 45.4649 17.7436C46.6601 17.1671 47.5601 15.7047 47.8835 13.8344C47.9538 13.3704 48.0241 13.286 48.4882 13.1595C48.7694 13.0892 49.0507 13.0188 49.0928 13.0188C49.1913 13.0188 49.135 13.3563 48.5866 15.9297L48.1929 17.7718L47.3351 18.0952C46.3789 18.4327 45.5774 19.1358 45.5492 19.6561C45.4789 20.767 45.6477 21.2029 46.3086 21.5966C47.0679 22.0607 48.5163 21.8778 49.2335 21.231C49.4303 21.0482 49.4866 21.0482 49.6413 21.2451C50.1475 21.8638 51.4412 22.0747 52.3552 21.681C53.2692 21.3013 53.9301 20.1904 54.2254 18.5452C54.2676 18.3343 54.3661 17.8702 54.4364 17.5187C54.5207 17.1671 54.8582 15.5359 55.2098 13.8907C55.5473 12.2314 55.8566 10.8393 55.8988 10.783C55.9269 10.7127 56.2644 10.6846 56.63 10.6986C57.0097 10.7127 57.3472 10.6564 57.4034 10.5721C57.6566 10.2065 57.5019 10.0799 56.7566 10.0377L55.9972 9.99554L56.2504 9.02526C56.4894 8.06905 56.8691 7.5347 57.305 7.5347C57.6144 7.5347 57.9659 7.97062 57.8956 8.25186C57.8394 8.46279 57.9097 8.51903 58.2331 8.51903C58.6409 8.51903 58.669 8.49091 58.6831 7.91437C58.6971 6.97222 57.8112 6.12851 56.8128 6.12851C56.2082 6.14258 55.3363 6.43787 54.9848 6.7613C54.7317 7.00035 54.6895 6.98629 54.2817 6.6488C53.1146 5.66447 51.2584 6.18476 50.4709 7.70344C50.3303 7.98468 50.035 9.08151 49.8241 10.1502C49.4303 12.0486 49.4303 12.0767 48.9804 12.2736C48.4882 12.4704 47.9398 12.5126 47.982 12.3439C48.0663 12.0626 47.771 10.9658 47.532 10.6283C47.1382 10.0799 46.5476 9.86897 45.5774 9.96741C44.593 10.0518 44.0306 10.319 43.3134 11.0642C42.5681 11.8376 42.076 12.8782 41.7807 14.3266C41.5978 15.2688 41.4713 15.5922 41.2041 15.8031C40.5432 16.3093 39.9104 16.5624 39.0948 16.6046C38.4199 16.6468 38.1949 16.6046 37.8011 16.3515C37.1262 15.8875 36.9434 15.2125 37.0277 13.5813C37.2105 10.3471 38.6308 7.26752 40.0932 6.93004C40.5573 6.81754 41.0213 7.14097 41.1338 7.6472C41.2182 8.05499 40.9088 8.98308 40.6416 9.15182C40.3463 9.33462 40.8104 9.64399 41.3447 9.64399C42.1603 9.64399 42.5119 9.12369 42.4416 8.05499C42.3994 7.4222 42.3009 7.16909 41.9916 6.84567C41.2041 6.01601 39.4183 5.87539 38.0402 6.5363ZM53.7755 7.61907C54.0426 7.71751 54.0567 8.18155 53.8458 9.26431L53.677 10.0658H52.1443L52.2427 9.67211C52.3974 9.09557 52.4255 8.8987 52.4396 8.61747C52.4536 8.33623 53.1849 7.5347 53.4098 7.5347C53.4942 7.5347 53.6489 7.57688 53.7755 7.61907ZM53.3958 10.8674C53.4239 10.9517 53.3536 11.5283 53.227 12.1329C53.1005 12.7376 52.9599 13.3563 52.9317 13.5251C52.6927 14.7625 52.2005 16.9702 52.1583 17.0124C52.1302 17.0546 51.8209 17.1109 51.4693 17.1671C51.1318 17.2233 50.7943 17.2937 50.724 17.3358C50.6678 17.364 50.6397 17.2515 50.6818 17.0687C50.724 16.8999 50.9209 15.9578 51.1178 14.9875C51.3146 14.0172 51.5818 12.836 51.6943 12.3579C51.7927 11.8798 51.8912 11.3595 51.8912 11.2049C51.8912 11.0502 51.9896 10.8674 52.1162 10.7971C52.4255 10.6283 53.3395 10.6846 53.3958 10.8674ZM46.5617 11.2752C46.6601 11.5564 46.6461 11.7111 46.4914 11.8798C46.1258 12.2736 46.0695 12.8642 46.3508 13.1735C46.5758 13.4266 46.5758 13.511 46.407 14.186C46.1961 15.0578 45.8446 15.775 45.4227 16.2109C45.0711 16.6046 44.3681 16.6468 44.1853 16.2812C43.8337 15.5781 44.1431 13.6235 44.8321 12.2032C45.4227 10.9799 46.2664 10.5299 46.5617 11.2752ZM52.0318 17.6874C52.0177 17.7858 51.9334 18.278 51.8349 18.7702C51.5256 20.1623 50.949 20.7248 50.2178 20.3451C49.9506 20.1904 49.9506 20.1482 50.1334 19.6279C50.2459 19.3186 50.3303 19.0233 50.3303 18.9952C50.3162 18.953 50.3584 18.6717 50.4147 18.3624C50.485 17.9405 50.5834 17.7858 50.8084 17.7296C50.9771 17.7015 51.2443 17.6452 51.399 17.6171C51.9193 17.5046 52.0318 17.5187 52.0318 17.6874Z" fill="whitesmoke"/>
<path d="M73.0543 6.35349C72.3372 6.60661 71.5075 7.28158 71.2122 7.84406C70.9029 8.43466 70.931 9.4893 71.2685 10.1502C71.4232 10.4455 72.0138 11.2049 72.5762 11.8236C73.1247 12.4423 73.7153 13.2298 73.8699 13.5813C74.2496 14.4391 74.2496 15.5078 73.8418 16.1546C73.2091 17.1812 71.5919 17.2234 71.0716 16.239C70.5795 15.2687 71.156 14.2563 72.3232 14.0875C72.6747 14.0454 72.745 13.9047 72.5622 13.5813C72.3232 13.1313 71.6622 12.9063 70.9873 13.0188C69.5108 13.3001 68.7092 14.7203 69.117 16.3093C69.4545 17.603 70.6076 18.2639 72.4497 18.2358C75.234 18.1936 76.9355 16.5203 76.7527 13.9891C76.6542 12.7657 76.3027 12.1611 74.8121 10.6986C74.1793 10.0799 73.5747 9.40493 73.4622 9.19401C73.0825 8.46279 73.2794 7.40814 73.8418 7.09878C74.3199 6.84567 75.1918 6.88785 75.5152 7.18315C75.923 7.54876 75.8949 8.39248 75.4449 8.92683C75.0934 9.33462 75.0934 9.34869 75.3605 9.48931C76.2324 9.96741 77.2026 9.16588 77.2026 7.99874C77.2026 7.33783 76.7948 6.73317 76.1339 6.42381C75.4027 6.07226 73.9262 6.04413 73.0543 6.35349Z" fill="whitesmoke"/>
<path d="M91.602 6.8316C91.4473 6.88784 91.2083 7.16909 91.0676 7.45033C90.8567 7.88625 90.8567 7.99874 91.0396 8.43466C91.3911 9.26431 92.3473 9.4893 93.0082 8.8987C94.1051 7.94249 92.966 6.28319 91.602 6.8316Z" fill="whitesmoke"/>
<path d="M103.611 7.7175C102.683 7.84406 102.683 7.84406 102.57 8.36435C102.514 8.64559 102.458 8.8987 102.444 8.94089C102.444 8.98308 102.387 9.25025 102.331 9.53149C102.247 9.92522 102.148 10.0658 101.966 10.0658C101.797 10.0658 101.684 10.1924 101.628 10.4315C101.586 10.6846 101.614 10.7689 101.755 10.7127C101.853 10.6705 101.966 10.6846 102.008 10.7408C102.036 10.797 101.811 11.9501 101.516 13.3001C100.925 16.014 100.883 16.464 101.15 17.139C101.403 17.7155 101.67 17.9405 102.275 18.0389C102.95 18.1374 103.695 17.7577 103.976 17.1671C104.272 16.5624 104.272 16.5624 103.822 16.5062C103.512 16.4781 103.414 16.3796 103.386 16.0843C103.344 15.7468 104.258 11.022 104.412 10.7689C104.44 10.7127 104.666 10.6846 104.905 10.6986C105.13 10.7127 105.326 10.6705 105.326 10.6143C105.326 10.558 105.369 10.4174 105.411 10.2908C105.481 10.108 105.397 10.0658 105.003 10.0658H104.511L104.778 8.8987C104.919 8.26591 105.045 7.70344 105.045 7.64719C105.045 7.54876 104.961 7.54877 103.611 7.7175Z" fill="whitesmoke"/>
<path d="M95.9471 9.47524C95.1456 9.50336 94.9206 9.55961 94.8644 9.75648C94.8081 9.93928 94.3159 12.2033 93.7253 15.0156C93.5285 15.9718 92.6285 16.689 92.0098 16.4078C91.5879 16.2109 91.5879 16.1406 92.3754 12.4845L92.8957 10.0658H90.6036L90.2239 11.7814C89.2396 16.3796 89.2115 16.5906 89.7739 17.4483C90.2099 18.1233 91.5598 18.1796 92.6426 17.589C92.966 17.4062 93.2332 17.2937 93.2332 17.3499C93.2332 17.4062 93.0082 18.4327 92.7551 19.6279C92.4879 20.8232 92.291 21.8216 92.3192 21.8497C92.3473 21.8919 93.3597 21.681 94.2316 21.456C94.6816 21.3294 94.7519 21.2451 94.8362 20.767C94.8784 20.4576 95.0472 19.642 95.2159 18.953L95.4971 17.6874L95.9753 17.8843C97.0158 18.3202 98.5345 17.8843 99.336 16.9421C100.827 15.1844 101.178 11.1205 99.9267 10.3049C99.4064 9.96741 98.5767 9.92522 97.7611 10.1924L97.0299 10.4455L97.1143 9.99554C97.1565 9.74242 97.1424 9.51743 97.0721 9.48931C97.0158 9.46119 96.5096 9.44712 95.9471 9.47524ZM98.422 11.6548C98.5908 12.0908 98.4923 13.6235 98.2252 14.5094C97.9158 15.564 97.5221 16.1968 96.9736 16.4499C95.8768 16.9702 95.7081 16.7031 96.0737 14.9875C96.2284 14.2563 96.3831 13.4548 96.4112 13.2298C96.6221 11.9783 96.9736 11.3595 97.5924 11.1627C97.8877 11.0642 98.2955 11.3033 98.422 11.6548Z" fill="whitesmoke"/>
<path d="M59.583 10.1221C58.43 10.5439 57.5862 11.5142 57.0097 13.1032C56.3488 14.9172 56.4191 16.5765 57.2066 17.4202C58.205 18.4889 60.5252 18.1936 62.0298 16.8015C62.3532 16.5062 62.6485 16.2531 62.6767 16.2531C62.6907 16.2531 62.7188 16.3796 62.7188 16.5343C62.7188 16.6749 62.9579 17.0546 63.2532 17.364C63.6891 17.828 63.886 17.9264 64.561 18.0108C65.9671 18.1796 67.0218 17.6874 67.514 16.6187C67.9077 15.7609 67.8514 15.6344 67.2608 16.0281C65.925 16.8999 64.9687 16.5765 64.9687 15.2687C64.9687 14.9031 65.0391 14.8469 65.5734 14.7063C67.3452 14.2704 68.4139 13.2016 68.5967 11.7111C68.7233 10.5721 68.0764 9.92522 66.839 9.92522C64.6734 9.95334 63.0845 11.7673 62.6485 14.7344C62.4939 15.775 61.2986 16.6749 60.0752 16.6749C59.2737 16.6749 58.9221 16.3093 58.9221 15.4797C58.9221 14.9031 58.9502 14.8469 59.3159 14.7625C60.7642 14.4391 61.7486 13.7501 62.2407 12.6814C62.7751 11.5283 62.6345 10.5299 61.8611 10.1221C61.3689 9.88304 60.2861 9.88304 59.583 10.1221ZM61.0877 10.8533C61.608 11.0502 61.158 12.7376 60.4267 13.3423C60.033 13.6516 59.2174 14.0594 59.1331 13.975C58.9081 13.7501 59.9346 11.4439 60.4408 11.0502C60.8345 10.7267 60.7924 10.7408 61.0877 10.8533ZM67.289 11.5705C67.2749 12.4704 66.7405 13.3001 65.8968 13.7219C65.1375 14.0735 65.1094 14.0735 65.1937 13.6376C65.3625 12.7235 66.2765 11.0361 66.6843 10.8674C67.1483 10.6705 67.289 10.8392 67.289 11.5705Z" fill="whitesmoke"/>
<path d="M80.5071 10.0518C79.101 10.5018 78.0041 11.9501 77.5401 13.9469C77.1182 15.8172 77.4698 17.3499 78.4541 17.7999C79.7619 18.3905 81.7446 17.9124 82.8977 16.7171L83.2774 16.3234L83.193 16.8859C83.1367 17.1952 83.0664 17.5608 83.0242 17.6874C82.9539 17.9124 83.0664 17.9405 84.1351 17.9405H85.3163L85.8366 15.3672C86.5116 12.0767 86.5678 11.922 87.1022 11.5986C87.3412 11.458 87.5803 11.3314 87.6365 11.3314C87.6788 11.3314 87.8475 11.5705 87.9881 11.8517C88.2131 12.3298 88.2974 12.3861 88.7334 12.3579C90.0833 12.3017 90.0271 10.0658 88.6911 10.0658C88.2834 10.0658 87.5803 10.3471 87.1022 10.6986C86.8209 10.9096 86.8209 10.8955 86.8772 10.4877L86.9334 10.0658H85.8085C84.8523 10.0658 84.6695 10.108 84.5991 10.3049C84.5569 10.4455 84.3179 11.5705 84.0648 12.8079C83.657 14.8188 83.5586 15.1141 83.1648 15.55C82.2368 16.5765 80.6196 16.9984 80.015 16.3937C79.2838 15.6625 80.0853 12.1048 81.1962 11.0502C81.7586 10.5299 82.068 10.7971 82.0258 11.7392C82.0118 12.1329 82.0399 12.4564 82.0961 12.4704C82.1524 12.4704 82.3071 12.4985 82.4336 12.5267C82.8695 12.611 83.2914 12.1329 83.3195 11.5423C83.3617 10.8111 83.1648 10.4033 82.6164 10.1361C82.1524 9.92521 81.0274 9.86898 80.5071 10.0518Z" fill="whitesmoke"/>
</svg>
