<svg id="Layer_1" enable-background="new 0 0 511.88 511.88" height="512" viewBox="0 0 511.88 511.88" width="512" xmlns="http://www.w3.org/2000/svg"><g><g><path d="m384.371 106.296-384.371 384.371 10.606 10.606 224.402-212.441 159.969-171.929z" fill="#b0eeae"/><path d="m-63.696 306.891h543.582v15h-543.582z" fill="#00dc7b" transform="matrix(.707 -.707 .707 .707 -161.359 239.229)"/></g><g><path d="m333.603 178.277 16.409 28.421c26.976 46.724 86.723 62.733 133.447 35.757l28.421-16.409-16.409-28.421c-26.976-46.724-86.723-62.733-133.447-35.757z" fill="#008475"/><path d="m333.603 178.277-28.421-16.409c-46.724-26.976-62.733-86.723-35.757-133.447l16.409-28.421 28.421 16.409c46.724 26.976 62.733 86.723 35.757 133.447z" fill="#00aa8e"/><circle cx="162.845" cy="283.255" fill="#ff4d4d" r="46.513"/><circle cx="228.625" cy="349.034" fill="#cc2929" r="46.513"/><circle cx="97.066" cy="349.034" fill="#ff4d4d" r="46.513"/><circle cx="162.846" cy="414.814" fill="#cc2929" r="46.513"/><path d="m39.974 406.127c-18.164 18.164-18.164 47.615 0 65.779l38.87-26.91 26.91-38.87c-18.165-18.164-47.615-18.164-65.78.001z" fill="#ff4d4d"/><path d="m254.553 257.327 16.409 28.421c26.976 46.724 86.723 62.733 133.447 35.757l28.421-16.409-16.409-28.421c-26.976-46.724-86.723-62.733-133.447-35.757z" fill="#00aa8e"/><path d="m254.553 257.327-28.421-16.409c-46.724-26.976-62.733-86.723-35.757-133.447l16.409-28.421 28.421 16.409c46.724 26.976 62.733 86.723 35.757 133.447z" fill="#00dc7b"/></g><g><path d="m363.611 115.451v32.818l79.973-41.973 50.535-88.535h-32.818c-53.953 0-97.69 43.738-97.69 97.69z" fill="#00dc7b"/></g><path d="m396.428 148.269c53.953 0 97.69-43.737 97.69-97.69v-32.818l-130.507 130.508z" fill="#00aa8e"/><path d="m105.753 406.127-65.779 65.779c18.164 18.164 47.615 18.164 65.779 0 18.165-18.165 18.165-47.615 0-65.779z" fill="#cc2929"/></g></svg>