<svg width="104" height="73" viewBox="0 0 104 73" fill="none" xmlns="http://www.w3.org/2000/svg">
<path d="M-19.752 -30.72H-19.392V-30H-29.688V-30.72H-29.328C-28.944 -30.72 -28.608 -30.84 -28.32 -31.08C-28.032 -31.368 -27.792 -31.704 -27.6 -32.088C-27.36 -32.472 -27.192 -32.88 -27.096 -33.312C-27 -33.744 -26.952 -34.152 -26.952 -34.536V-73.056C-26.952 -73.392 -27 -73.776 -27.096 -74.208C-27.192 -74.64 -27.336 -75.048 -27.528 -75.432C-27.72 -75.816 -27.984 -76.128 -28.32 -76.368C-28.608 -76.656 -28.944 -76.8 -29.328 -76.8H-29.688V-77.52H-2.04001V-70.824H-2.76001C-2.76001 -71.928 -3.14401 -72.888 -3.91201 -73.704C-4.63201 -74.568 -5.78401 -75 -7.36801 -75H-22.128V-56.784H-10.176C-9.07201 -56.784 -8.16001 -57.12 -7.44001 -57.792C-6.67201 -58.464 -6.28801 -59.256 -6.28801 -60.168H-5.56801V-51.168H-6.28801C-6.28801 -52.032 -6.64801 -52.776 -7.36801 -53.4C-8.08801 -54.024 -9.02401 -54.336 -10.176 -54.336H-22.128V-34.536C-22.128 -34.152 -22.08 -33.744 -21.984 -33.312C-21.888 -32.88 -21.744 -32.472 -21.552 -32.088C-21.312 -31.704 -21.048 -31.368 -20.76 -31.08C-20.472 -30.84 -20.136 -30.72 -19.752 -30.72ZM23.9649 -78.24C27.7089 -78.24 31.0689 -77.568 34.0449 -76.224C37.0209 -74.928 39.5409 -73.152 41.6049 -70.896C43.717 -68.688 45.325 -66.096 46.429 -63.12C47.581 -60.192 48.157 -57.12 48.157 -53.904C48.157 -50.304 47.485 -46.992 46.141 -43.968C44.845 -40.944 43.045 -38.352 40.7409 -36.192C38.4369 -34.032 35.7489 -32.328 32.6769 -31.08C29.6529 -29.88 26.4129 -29.28 22.9569 -29.28C19.2609 -29.28 15.9249 -29.952 12.9489 -31.296C10.0209 -32.64 7.52489 -34.416 5.46089 -36.624C3.44489 -38.832 1.88489 -41.376 0.78089 -44.256C-0.32311 -47.136 -0.875109 -50.136 -0.875109 -53.256C-0.875109 -56.328 -0.32311 -59.352 0.78089 -62.328C1.88489 -65.352 3.49289 -68.04 5.60489 -70.392C7.76489 -72.744 10.3809 -74.64 13.4529 -76.08C16.5249 -77.52 20.0289 -78.24 23.9649 -78.24ZM23.8929 -31.8C27.1089 -31.944 29.9169 -32.664 32.3169 -33.96C34.7649 -35.304 36.8049 -36.984 38.4369 -39C40.0689 -41.064 41.2689 -43.32 42.0369 -45.768C42.8529 -48.216 43.261 -50.64 43.261 -53.04C43.261 -55.68 42.7809 -58.344 41.8209 -61.032C40.8609 -63.72 39.4929 -66.144 37.7169 -68.304C35.9409 -70.512 33.8049 -72.288 31.3089 -73.632C28.8609 -75.024 26.1009 -75.72 23.0289 -75.72C20.0529 -75.72 17.3889 -75.048 15.0369 -73.704C12.6849 -72.408 10.6689 -70.728 8.98889 -68.664C7.35689 -66.6 6.10889 -64.296 5.24489 -61.752C4.38089 -59.208 3.94889 -56.712 3.94889 -54.264C3.94889 -51.624 4.45289 -48.96 5.46089 -46.272C6.46889 -43.632 7.86089 -41.232 9.63689 -39.072C11.4129 -36.912 13.5009 -35.16 15.9009 -33.816C18.3489 -32.472 21.0129 -31.8 23.8929 -31.8ZM78.738 -78.24C82.482 -78.24 85.842 -77.568 88.818 -76.224C91.794 -74.928 94.314 -73.152 96.378 -70.896C98.49 -68.688 100.098 -66.096 101.202 -63.12C102.354 -60.192 102.93 -57.12 102.93 -53.904C102.93 -50.304 102.258 -46.992 100.914 -43.968C99.618 -40.944 97.818 -38.352 95.514 -36.192C93.21 -34.032 90.522 -32.328 87.45 -31.08C84.426 -29.88 81.186 -29.28 77.73 -29.28C74.034 -29.28 70.698 -29.952 67.722 -31.296C64.794 -32.64 62.298 -34.416 60.234 -36.624C58.218 -38.832 56.658 -41.376 55.554 -44.256C54.45 -47.136 53.898 -50.136 53.898 -53.256C53.898 -56.328 54.45 -59.352 55.554 -62.328C56.658 -65.352 58.266 -68.04 60.378 -70.392C62.538 -72.744 65.154 -74.64 68.226 -76.08C71.298 -77.52 74.802 -78.24 78.738 -78.24ZM78.666 -31.8C81.882 -31.944 84.69 -32.664 87.09 -33.96C89.538 -35.304 91.578 -36.984 93.21 -39C94.842 -41.064 96.042 -43.32 96.81 -45.768C97.626 -48.216 98.034 -50.64 98.034 -53.04C98.034 -55.68 97.554 -58.344 96.594 -61.032C95.634 -63.72 94.266 -66.144 92.49 -68.304C90.714 -70.512 88.578 -72.288 86.082 -73.632C83.634 -75.024 80.874 -75.72 77.802 -75.72C74.826 -75.72 72.162 -75.048 69.81 -73.704C67.458 -72.408 65.442 -70.728 63.762 -68.664C62.13 -66.6 60.882 -64.296 60.018 -61.752C59.154 -59.208 58.722 -56.712 58.722 -54.264C58.722 -51.624 59.226 -48.96 60.234 -46.272C61.242 -43.632 62.634 -41.232 64.41 -39.072C66.186 -36.912 68.274 -35.16 70.674 -33.816C73.122 -32.472 75.786 -31.8 78.666 -31.8ZM109.176 -30.72H109.536C109.872 -30.72 110.184 -30.864 110.472 -31.152C110.76 -31.44 111 -31.776 111.192 -32.16C111.432 -32.544 111.6 -32.952 111.696 -33.384C111.792 -33.864 111.84 -34.296 111.84 -34.68V-73.056C111.84 -73.392 111.792 -73.776 111.696 -74.208C111.6 -74.64 111.456 -75.048 111.264 -75.432C111.072 -75.816 110.832 -76.128 110.544 -76.368C110.256 -76.656 109.92 -76.8 109.536 -76.8H109.176V-77.52H123.072C126.864 -77.52 130.272 -76.848 133.296 -75.504C136.32 -74.208 138.864 -72.432 140.928 -70.176C143.04 -67.968 144.648 -65.424 145.752 -62.544C146.856 -59.664 147.408 -56.664 147.408 -53.544C147.408 -50.616 146.88 -47.736 145.824 -44.904C144.768 -42.12 143.184 -39.624 141.072 -37.416C138.96 -35.208 136.32 -33.408 133.152 -32.016C129.984 -30.672 126.312 -30 122.136 -30H109.176V-30.72ZM142.512 -52.464C142.512 -55.536 141.96 -58.44 140.856 -61.176C139.752 -63.912 138.192 -66.288 136.176 -68.304C134.208 -70.368 131.856 -72 129.12 -73.2C126.432 -74.4 123.504 -75 120.336 -75H116.664V-32.52H120.48C123.072 -32.52 125.664 -32.904 128.256 -33.672C130.896 -34.488 133.272 -35.712 135.384 -37.344C137.496 -39.024 139.2 -41.112 140.496 -43.608C141.84 -46.104 142.512 -49.056 142.512 -52.464ZM-29.76 48.28H-29.4C-29.016 48.28 -28.68 48.16 -28.392 47.92C-28.104 47.632 -27.864 47.296 -27.672 46.912C-27.432 46.528 -27.264 46.12 -27.168 45.688C-27.024 45.256 -26.952 44.848 -26.952 44.464V5.944C-26.952 5.608 -27.024 5.224 -27.168 4.792C-27.264 4.36 -27.432 3.952 -27.672 3.568C-27.864 3.184 -28.104 2.872 -28.392 2.632C-28.68 2.344 -29.016 2.2 -29.4 2.2H-29.76V1.48H-19.392V2.2H-19.752C-20.136 2.2 -20.472 2.344 -20.76 2.632C-21.048 2.872 -21.288 3.184 -21.48 3.568C-21.672 3.952 -21.84 4.36 -21.984 4.792C-22.08 5.224 -22.128 5.608 -22.128 5.944V46.336H-6.36001C-5.44801 46.336 -4.65601 46.12 -3.98401 45.688C-3.31201 45.256 -2.76001 44.728 -2.32801 44.104C-1.84801 43.432 -1.51201 42.736 -1.32001 42.016C-1.08001 41.248 -0.960009 40.552 -0.960009 39.928H-0.240011V49H-29.76V48.28ZM25.0196 0.760002C28.7636 0.760002 32.1236 1.432 35.0996 2.776C38.0756 4.072 40.5956 5.848 42.6596 8.104C44.772 10.312 46.38 12.904 47.484 15.88C48.636 18.808 49.212 21.88 49.212 25.096C49.212 28.696 48.54 32.008 47.196 35.032C45.9 38.056 44.1 40.648 41.7956 42.808C39.4916 44.968 36.8036 46.672 33.7316 47.92C30.7076 49.12 27.4676 49.72 24.0116 49.72C20.3156 49.72 16.9796 49.048 14.0036 47.704C11.0756 46.36 8.57959 44.584 6.51559 42.376C4.49959 40.168 2.93959 37.624 1.83559 34.744C0.731592 31.864 0.17959 28.864 0.17959 25.744C0.17959 22.672 0.731592 19.648 1.83559 16.672C2.93959 13.648 4.54759 10.96 6.65959 8.608C8.81959 6.256 11.4356 4.36 14.5076 2.92C17.5796 1.48 21.0836 0.760002 25.0196 0.760002ZM24.9476 47.2C28.1636 47.056 30.9716 46.336 33.3716 45.04C35.8196 43.696 37.8596 42.016 39.4916 40C41.1236 37.936 42.3236 35.68 43.092 33.232C43.908 30.784 44.316 28.36 44.316 25.96C44.316 23.32 43.836 20.656 42.8756 17.968C41.9156 15.28 40.5476 12.856 38.7716 10.696C36.9956 8.488 34.8596 6.712 32.3636 5.368C29.9156 3.976 27.1556 3.28 24.0836 3.28C21.1076 3.28 18.4436 3.952 16.0916 5.296C13.7396 6.592 11.7236 8.272 10.0436 10.336C8.41159 12.4 7.16359 14.704 6.29959 17.248C5.43559 19.792 5.00359 22.288 5.00359 24.736C5.00359 27.376 5.50759 30.04 6.51559 32.728C7.52359 35.368 8.91559 37.768 10.6916 39.928C12.4676 42.088 14.5556 43.84 16.9556 45.184C19.4036 46.528 22.0676 47.2 24.9476 47.2ZM79.793 0.760002C83.537 0.760002 86.897 1.432 89.873 2.776C92.849 4.072 95.369 5.848 97.433 8.104C99.545 10.312 101.153 12.904 102.257 15.88C103.409 18.808 103.985 21.88 103.985 25.096C103.985 28.696 103.313 32.008 101.969 35.032C100.673 38.056 98.873 40.648 96.569 42.808C94.265 44.968 91.577 46.672 88.505 47.92C85.481 49.12 82.241 49.72 78.785 49.72C75.089 49.72 71.753 49.048 68.777 47.704C65.849 46.36 63.353 44.584 61.289 42.376C59.273 40.168 57.713 37.624 56.609 34.744C55.505 31.864 54.953 28.864 54.953 25.744C54.953 22.672 55.505 19.648 56.609 16.672C57.713 13.648 59.321 10.96 61.433 8.608C63.593 6.256 66.209 4.36 69.281 2.92C72.353 1.48 75.857 0.760002 79.793 0.760002ZM79.721 47.2C82.937 47.056 85.745 46.336 88.145 45.04C90.593 43.696 92.633 42.016 94.265 40C95.897 37.936 97.097 35.68 97.865 33.232C98.681 30.784 99.089 28.36 99.089 25.96C99.089 23.32 98.609 20.656 97.649 17.968C96.689 15.28 95.321 12.856 93.545 10.696C91.769 8.488 89.633 6.712 87.137 5.368C84.689 3.976 81.929 3.28 78.857 3.28C75.881 3.28 73.217 3.952 70.865 5.296C68.513 6.592 66.497 8.272 64.817 10.336C63.185 12.4 61.937 14.704 61.073 17.248C60.209 19.792 59.777 22.288 59.777 24.736C59.777 27.376 60.281 30.04 61.289 32.728C62.297 35.368 63.689 37.768 65.465 39.928C67.241 42.088 69.329 43.84 71.729 45.184C74.177 46.528 76.841 47.2 79.721 47.2ZM120.239 48.28H120.599V49H110.303V48.28H110.663C111.047 48.28 111.383 48.136 111.671 47.848C111.959 47.56 112.199 47.224 112.391 46.84C112.631 46.456 112.799 46.048 112.895 45.616C112.991 45.136 113.039 44.704 113.039 44.32V5.944C113.039 5.608 112.991 5.224 112.895 4.792C112.799 4.36 112.631 3.952 112.391 3.568C112.199 3.184 111.959 2.872 111.671 2.632C111.383 2.344 111.071 2.2 110.735 2.2H110.375V1.48H120.671V2.2H120.311C119.927 2.2 119.591 2.344 119.303 2.632C119.015 2.872 118.751 3.184 118.511 3.568C118.319 3.952 118.151 4.36 118.007 4.792C117.911 5.224 117.863 5.608 117.863 5.944V22.648L136.151 4.504C136.439 4.168 136.583 3.784 136.583 3.352C136.583 2.584 136.295 2.2 135.719 2.2H135.359V1.48H144.143V2.2H143.783C143.111 2.2 142.415 2.44 141.695 2.92C140.975 3.4 140.255 4 139.535 4.72L124.415 19.768L140.327 43.888C140.375 43.984 140.591 44.272 140.975 44.752C141.359 45.232 141.815 45.736 142.343 46.264C142.919 46.792 143.543 47.272 144.215 47.704C144.935 48.088 145.655 48.28 146.375 48.28V49H144.647C143.207 49 141.983 48.928 140.975 48.784C140.015 48.592 139.175 48.304 138.455 47.92C137.735 47.536 137.087 47.056 136.511 46.48C135.983 45.904 135.431 45.184 134.855 44.32L120.887 23.224L117.863 26.32V44.32C117.863 44.704 117.911 45.112 118.007 45.544C118.151 45.976 118.319 46.408 118.511 46.84C118.703 47.224 118.943 47.56 119.231 47.848C119.519 48.136 119.855 48.28 120.239 48.28Z" fill="#E65100"/>
<path d="M32 22C34.7614 22 37 19.7614 37 17C37 14.2386 34.7614 12 32 12C29.2386 12 27 14.2386 27 17C27 19.7614 29.2386 22 32 22Z" fill="#960100"/>
<path d="M87 22C89.7614 22 92 19.7614 92 17C92 14.2386 89.7614 12 87 12C84.2386 12 82 14.2386 82 17C82 19.7614 84.2386 22 87 22Z" fill="#960100"/>
<path d="M8 53C8 53 8.4639 70.425 53.464 70.987C98.464 71.55 98 53 98 53" stroke="#960100" stroke-width="3"/>
</svg>
